<svg width="128" height="128" viewBox="0 0 128 128" fill="none" xmlns="http://www.w3.org/2000/svg">
  <rect x="12" y="12" width="104" height="104" rx="24" fill="#09090B"/>
  <rect x="78" y="78" width="27" height="15" rx="7.5" transform="rotate(45 78 78)" fill="#D4D4D8"/>
  <path fill-rule="evenodd" clip-rule="evenodd" d="M64 30C45.2223 30 30 45.2223 30 64C30 82.7777 45.2223 98 64 98C82.7777 98 98 82.7777 98 64C98 45.2223 82.7777 30 64 30ZM64 49C55.7157 49 49 55.7157 49 64C49 72.2843 55.7157 79 64 79C72.2843 79 79 72.2843 79 64C79 55.7157 72.2843 49 64 49Z" fill="#FAFAFA"/>
  <circle cx="64" cy="64" r="15" fill="#09090B"/>
</svg>
